<?xml version="1.0" encoding="UTF-8"?>
<svg xmlns="http://www.w3.org/2000/svg" width="1024" height="1024" viewBox="0 0 128 128" role="img" aria-labelledby="ghost-guy-mark-title">
  <title id="ghost-guy-mark-title">TaskWraith ghost mark</title>
  <defs>
    <linearGradient id="ghost-guy-mark-fill" x1="38" y1="30" x2="98" y2="96" gradientUnits="userSpaceOnUse">
      <stop offset="0" stop-color="#ffffff" stop-opacity="0.98"/>
      <stop offset="0.34" stop-color="#f2fbff" stop-opacity="0.94"/>
      <stop offset="0.63" stop-color="#d8f0ff" stop-opacity="0.86"/>
      <stop offset="1" stop-color="#9fc6de" stop-opacity="0.76"/>
    </linearGradient>
    <linearGradient id="ghost-guy-mark-rim" x1="32" y1="24" x2="104" y2="102" gradientUnits="userSpaceOnUse">
      <stop offset="0" stop-color="#25324b" stop-opacity="0.92"/>
      <stop offset="0.62" stop-color="#121b2e" stop-opacity="0.8"/>
      <stop offset="1" stop-color="#07101f" stop-opacity="0.72"/>
    </linearGradient>
    <radialGradient id="ghost-guy-mark-glow" cx="50%" cy="44%" r="58%">
      <stop offset="0" stop-color="#a8dcff" stop-opacity="0.34"/>
      <stop offset="0.48" stop-color="#638aff" stop-opacity="0.14"/>
      <stop offset="1" stop-color="#638aff" stop-opacity="0"/>
    </radialGradient>
  </defs>
  <g shape-rendering="crispEdges">
    
    <polygon fill="url(#ghost-guy-mark-fill)" stroke="url(#ghost-guy-mark-rim)" stroke-width="7" stroke-linejoin="miter" points="56 30 80 30 92 36 98 48 98 84 92 84 86 90 80 84 74 96 68 84 56 96 50 84 38 84 38 48 44 36"/>
    <polygon fill="#ffffff" opacity="0.34" points="46 34 64 37 56 52 48 47"/>
    <polygon fill="#40689d" opacity="0.18" points="78 44 94 49 90 72 78 64"/>
    <rect x="51" y="54" width="10" height="12" fill="#111827"/>
    <rect x="75" y="54" width="10" height="12" fill="#111827"/>
    <rect x="54" y="51" width="3" height="3" fill="#ffffff" opacity="0.24"/>
    <rect x="78" y="51" width="3" height="3" fill="#ffffff" opacity="0.24"/>
    <rect x="51" y="66" width="10" height="4" fill="#111827" opacity="0.2"/>
    <rect x="75" y="66" width="10" height="4" fill="#111827" opacity="0.2"/>
    <rect x="44" y="92" width="12" height="12" fill="#f7fcff"/>
    <rect x="62" y="92" width="12" height="12" fill="#e6f6ff"/>
    <rect x="80" y="92" width="12" height="12" fill="#c8e4f5"/>
    
  </g>
</svg>
